<svg width="21" height="24" viewBox="0 0 21 24" fill="none" xmlns="http://www.w3.org/2000/svg">
<path fill-rule="evenodd" clip-rule="evenodd" d="M9.04175 22.5C9.04175 22.8978 8.8881 23.2794 8.61461 23.5607C8.34112 23.842 7.97019 24 7.58342 24C7.19664 24 6.82571 23.842 6.55222 23.5607C6.27873 23.2794 6.12508 22.8978 6.12508 22.5V6C6.12508 5.60218 6.27873 5.22064 6.55222 4.93934C6.82571 4.65804 7.19664 4.5 7.58342 4.5C7.97019 4.5 8.34112 4.65804 8.61461 4.93934C8.8881 5.22064 9.04175 5.60218 9.04175 6V22.5ZM3.20841 22.5C3.20841 22.8978 3.05477 23.2794 2.78128 23.5607C2.50779 23.842 2.13686 24 1.75008 24C1.36331 24 0.992375 23.842 0.718884 23.5607C0.445394 23.2794 0.291748 22.8978 0.291748 22.5V12C0.291748 11.6022 0.445394 11.2206 0.718884 10.9393C0.992375 10.658 1.36331 10.5 1.75008 10.5C2.13686 10.5 2.50779 10.658 2.78128 10.9393C3.05477 11.2206 3.20841 11.6022 3.20841 12V22.5ZM11.9584 22.5V9C11.9584 8.60218 12.1121 8.22064 12.3856 7.93934C12.659 7.65804 13.03 7.5 13.4167 7.5C13.8035 7.5 14.1745 7.65804 14.4479 7.93934C14.7214 8.22064 14.8751 8.60218 14.8751 9V22.5C14.8751 22.8978 14.7214 23.2794 14.4479 23.5607C14.1745 23.842 13.8035 24 13.4167 24C13.03 24 12.659 23.842 12.3856 23.5607C12.1121 23.2794 11.9584 22.8978 11.9584 22.5ZM17.7917 1.5C17.7917 1.10218 17.9454 0.720645 18.2189 0.43934C18.4924 0.158036 18.8633 0 19.2501 0C19.6369 0 20.0078 0.158036 20.2813 0.43934C20.5548 0.720645 20.7084 1.10218 20.7084 1.5V22.5C20.7084 22.8978 20.5548 23.2794 20.2813 23.5607C20.0078 23.842 19.6369 24 19.2501 24C18.8633 24 18.4924 23.842 18.2189 23.5607C17.9454 23.2794 17.7917 22.8978 17.7917 22.5V1.5Z" fill="#7C7A7A"/>
</svg>
