<svg width="192" height="148" viewBox="0 0 192 148" fill="none" xmlns="http://www.w3.org/2000/svg">
<path d="M106.37 0.0762634C108.936 0.314285 112.044 1.13991 114.789 2.31512C117.237 3.36389 120.419 5.13416 123.668 7.27632C135.699 15.183 149.837 25.1426 167.603 38.2113C174.412 43.232 191.636 56.018 191.822 56.204C191.881 56.2635 190.946 55.8246 189.745 55.2222C178.574 49.6287 170.511 46.5345 164.858 45.6642C160.608 45.0171 157.863 45.5452 155.238 47.5238C152.337 49.7105 149.756 53.6378 146.908 60.1982C145.632 63.1437 142.783 70.1578 142.843 70.2173C142.932 70.2991 145.372 71.2661 146.759 71.7719C148.621 72.4413 152.219 73.624 158.219 75.5281C165.296 77.7818 176.638 81.4414 176.875 81.5529C177.053 81.6422 173.76 81.4934 170.162 81.2554C163.761 80.8315 163.204 80.8091 159.035 80.8091C155.111 80.8091 154.118 80.8463 151.506 81.1141C145.424 81.724 139.994 83.2786 135.625 85.6513C134.594 86.2166 134.661 86.1497 133.489 87.734C131.961 89.7869 129.75 92.1745 127.992 93.6473C123.735 97.2324 118.713 99.4415 113.098 100.215C112.519 100.289 112.386 100.297 112.467 100.215C112.519 100.163 112.912 99.8357 113.342 99.4787C117.504 96.02 120.901 91.8696 123.72 86.7968C125.433 83.71 126.984 80.1918 128.46 76.0116C129.461 73.1777 129.825 72.0173 132.473 63.2553C134.053 57.9966 134.928 55.356 136.003 52.5445C138.422 46.2444 141.27 41.2237 144.69 37.2369L145.535 36.2551L145.224 35.965C145.046 35.8088 144.445 35.3327 143.881 34.9013C138.258 30.6542 124.692 23.1492 119.329 21.3045C118.32 20.9624 117.711 20.9475 117.118 21.245C116.732 21.4459 116.703 21.483 116.31 22.2715C114.663 25.5666 113.298 32.8931 112.119 44.7345C111.451 51.5031 110.932 58.2792 109.967 73.0735C108.907 89.3257 108.558 93.9448 107.994 99.0324C107.468 103.763 106.852 106.961 106.281 107.847L106.11 108.107L106.088 106.88C106.051 104.909 106.214 84.3199 106.296 80.7348C106.659 64.5569 107.408 52.4329 108.751 40.9039C109.634 33.2798 110.872 25.5963 112.2 19.445C112.341 18.7905 112.556 17.6376 112.675 16.8789C112.92 15.2871 113.098 14.6475 113.424 14.2086C113.743 13.7549 114.04 13.6508 114.685 13.7549C117.222 14.1491 122.199 16.8268 130.551 22.3087C134.349 24.793 137.984 27.2996 146.054 32.9823C148.154 34.4625 150.067 35.8013 150.297 35.9575L150.728 36.2402L150.186 36.8055C149.37 37.6683 148.732 38.5014 147.723 40.0113C143.681 46.0808 138.822 57.4461 135.64 68.2611C134.772 71.214 133.622 75.6174 133.697 75.6917C133.749 75.7513 134.787 74.3603 135.284 73.5645C136.99 70.8198 138.125 68.1495 140.647 60.9644C142.857 54.6643 143.978 51.875 145.506 48.8477C148.124 43.6857 151.091 40.1675 154.882 37.7501C155.564 37.3187 157.433 36.3741 158.071 36.1361C158.531 35.965 158.538 35.965 158.323 35.898C158.205 35.8608 157.374 35.8237 156.476 35.8162C154.793 35.8088 154.666 35.8237 153.828 36.1807C153.71 36.2253 153.702 36.2104 153.776 36.0022C153.821 35.8832 153.984 35.6377 154.132 35.4592C154.54 34.998 154.704 34.6633 154.57 34.5443C154.422 34.403 141.426 24.8227 139.638 23.536C131.412 17.6004 123.29 12.2896 118.55 9.74577C116.666 8.74162 115.731 8.35484 112.608 7.31352C107.898 5.73665 106.659 5.38705 104.664 5.07466C103.388 4.87383 100.109 4.89613 98.0991 5.11185C95.5474 5.38705 84.087 6.9193 79.043 7.6631C61.8562 10.1772 49.9211 12.7879 39.6105 16.2764C34.8335 17.8905 29.6634 20.0549 28.0908 21.0963C27.8164 21.2822 27.6013 21.4459 27.6161 21.4607C27.6309 21.4756 28.4246 21.193 29.3815 20.8285C42.9781 15.659 61.5298 11.6127 82.559 9.2251C87.7069 8.6375 94.6721 8.0127 98.507 7.78955C103.113 7.52177 106.132 8.49617 107.646 10.7276C108.143 11.464 108.269 11.8359 108.321 12.7136C108.469 15.4657 107.742 29.9996 106.704 45.1064C105.035 69.2727 103.225 87.3844 101.986 92.1522C101.66 93.4167 101.585 93.5506 100.888 93.9597C97.8543 95.7671 91.0968 97.3737 81.6318 98.5415C65.5131 100.527 41.0866 101.167 23.4399 100.074C15.9184 99.6052 10.14 98.7795 8.03339 97.8721C7.84795 97.7903 7.67734 97.7382 7.66249 97.7605C7.64766 97.7754 7.59573 98.1399 7.55865 98.5638C7.52156 98.9804 7.42513 99.7985 7.34354 100.371C7.09134 102.201 6.98007 103.175 6.92815 104.061L6.87622 104.916L7.64766 105.585C9.14604 106.872 10.5257 107.772 12.573 108.776C18.7371 111.796 27.49 113.641 38.535 114.251C44.7436 114.593 57.5317 113.961 68.1316 112.785C84.087 111.023 95.9998 108.077 102.29 104.328C102.832 104.001 102.846 104.001 102.906 104.157C103.017 104.425 102.913 111.015 102.78 112.309C102.557 114.489 102.208 116.088 101.786 116.884C101.393 117.613 101.214 117.263 101.103 115.59C100.999 114.042 101.155 110.435 101.43 108.271C101.474 107.876 101.496 107.549 101.474 107.549C101.444 107.549 101.289 107.668 101.118 107.817C100.866 108.032 100.732 108.085 100.347 108.129L99.8793 108.181L99.8274 109.409C99.7977 110.085 99.6716 111.655 99.5455 112.904C99.4194 114.154 99.3007 115.731 99.2711 116.415L99.2265 117.657L97.9581 118.096C92.4616 120.015 85.4445 121.562 78.9243 122.306C76.3133 122.604 72.2113 122.871 70.1492 122.871C69.3555 122.871 69.2813 122.857 69.2813 122.73C69.2813 122.604 69.3852 122.589 70.5794 122.544C75.1042 122.366 79.5696 121.503 87.195 119.338C92.2984 117.888 93.6262 117.516 95.2878 117.1L96.9345 116.683L96.979 115.664C97.0087 115.106 97.0754 113.968 97.1348 113.128C97.1941 112.287 97.2609 111.127 97.2831 110.539C97.335 109.513 97.3276 109.483 97.1793 109.483C96.7787 109.483 93.7523 110.137 89.3091 111.194C77.6559 113.961 74.2215 114.719 72.2113 114.987C71.8404 115.032 71.4769 115.091 71.3953 115.106C71.2841 115.128 70.6981 116.252 68.9475 119.807C67.6865 122.373 66.648 124.478 66.648 124.486C66.6258 124.53 64.1483 124.895 62.4719 125.103C59.1487 125.512 55.5215 125.802 51.0709 126.01C48.4227 126.129 40.3374 126.129 38.535 126.01C33.1052 125.646 30.0788 125.11 25.3315 123.69C23.1284 123.035 22.2754 122.819 21.222 122.656L20.369 122.529L20.2429 121.607C20.1687 121.094 19.9759 119.971 19.8053 119.115C19.3602 116.809 19.1451 115.433 19.0932 114.533L19.0412 113.73L18.7371 113.685C18.1437 113.589 16.4599 112.971 14.6425 112.19C11.6384 110.904 10.904 110.524 9.13863 109.379C8.72322 109.111 8.34492 108.888 8.30783 108.888C8.21141 108.888 8.21141 111.729 8.30783 112.83C8.47102 114.645 8.81224 115.5 9.70978 116.348C10.7112 117.285 12.0315 118.126 14.7835 119.576C16.4673 120.454 17.9212 121.28 17.9879 121.376C18.025 121.443 17.8915 121.428 17.0236 121.257C15.4214 120.945 13.5002 120.038 9.94714 117.895C8.58971 117.07 7.43997 116.4 7.40288 116.4C7.32129 116.4 7.3287 116.445 7.52898 117.59C7.78117 118.981 7.87019 120.558 7.93695 124.545C8.01112 129.03 8.09273 130.094 8.45619 131.686C8.89383 133.575 9.6727 135.025 10.8818 136.186C11.6606 136.944 12.3356 137.405 13.3667 137.889C14.3681 138.365 15.2731 138.648 17.172 139.086C36.3171 143.52 71.3138 144.308 97.8394 140.909C100.762 140.529 105.917 139.726 106.474 139.563C106.607 139.518 106.607 139.525 106.474 139.756C106.244 140.15 104.975 141.452 104.352 141.92C100.406 144.933 93.0921 146.755 82.1881 147.447C78.6054 147.677 76.0982 147.744 70.9132 147.744C61.9452 147.737 53.4594 147.372 40.3523 146.413C32.3708 145.825 19.1303 144.687 17.4687 144.449C9.87297 143.334 5.46686 139.592 4.15393 133.143C3.96106 132.191 3.8053 130.793 3.74596 129.566C3.72369 129.015 3.59018 126.605 3.44925 124.21C2.69264 111.246 2.56654 103.8 3.00418 98.3853C3.31572 94.4878 3.91656 92.0034 4.74734 91.1258L4.98471 90.8803L5.14049 91.1258C6.18637 92.6877 12.306 93.796 22.7353 94.3092C27.2007 94.525 29.4483 94.5621 36.8289 94.5621C44.3949 94.5621 47.4881 94.5101 53.7041 94.2721C66.6258 93.7663 78.2271 92.8142 86.3049 91.5944C92.7286 90.62 96.6971 89.4373 97.1199 88.3662C97.6985 86.9307 99.2117 74.9851 100.651 60.5032C101.919 47.8138 102.78 36.8576 103.217 27.8872C103.351 25.2542 103.44 19.1847 103.351 19.3037C103.321 19.3483 102.876 19.4748 102.364 19.5863C98.737 20.3748 95.5177 22.2789 93.196 25.0087C90.4292 28.2517 88.9605 32.0972 88.6786 36.8055L88.6341 37.579L90.8223 37.5344C92.0314 37.5047 94.0045 37.46 95.2062 37.4303L97.3944 37.3857V45.3444C97.3944 49.718 97.3721 54.8651 97.3425 56.7693L97.298 60.2429H88.8492H80.4079V51.4064C80.4153 41.9378 80.482 38.2857 80.6675 36.8129C81.2906 31.8443 82.9225 27.7162 85.6522 24.2054C89.4352 19.3409 95.1617 16.1053 101.919 15.0045C102.468 14.9152 102.935 14.8334 102.95 14.8185C103.054 14.7442 102.631 14.1194 102.179 13.6879C101.311 12.8623 100.272 12.3417 98.8112 11.9921C93.3443 10.6904 65.6244 14.8036 44.6916 20.0103C34.3514 22.5913 27.1043 25.0385 23.4696 27.1806C21.2072 28.5195 19.605 31.3831 16.8753 38.97C16.4451 40.1749 15.8442 41.8336 15.5475 42.6518L15.006 44.1394L13.7302 44.1617C12.5359 44.1766 12.4543 44.1692 12.4914 44.0502C12.5137 43.9758 12.8475 42.6072 13.2332 41.008C14.4126 36.1137 15.3546 32.7815 16.2448 30.2823C16.4896 29.6054 16.675 29.0327 16.6527 29.0178C16.5934 28.9583 15.4362 29.4343 14.7835 29.7914C10.3625 32.2013 7.38063 38.2113 7.00232 45.4708L6.95039 46.5047L8.27817 46.4601C9.0051 46.4304 10.6889 46.3857 12.0093 46.356L14.4126 46.3113L14.3681 50.1717C14.3384 52.2916 14.3162 56.8214 14.3162 60.2206V66.4165H7.1581H1.52588e-05L0.00743103 59.4767C0.00743103 51.2949 0.089035 46.6163 0.259628 45.2923C1.26845 37.1402 5.22208 30.1856 11.0153 26.3847C13.426 24.8004 16.1261 23.7963 18.8187 23.4913L19.5457 23.4095L19.8424 22.993C20.369 22.264 21.2962 21.3864 22.0677 20.8731C24.9754 18.9764 29.5595 16.745 34.9374 14.6103C52.4431 7.6631 79.2729 1.51926 97.8024 0.21759C100.962 -0.0055542 104.797 -0.0650635 106.37 0.0762634Z" fill="white"/>
</svg>
