<svg width="283" height="227" viewBox="0 0 283 227" fill="none" xmlns="http://www.w3.org/2000/svg">
<path d="M173.266 37.5895C175.927 37.8362 179.148 38.692 181.994 39.9101C184.531 40.9972 187.83 42.8321 191.198 45.0525C203.67 53.248 218.326 63.5714 236.742 77.1175C243.801 82.3216 261.656 95.5748 261.848 95.7675C261.91 95.8292 260.941 95.3743 259.695 94.7498C248.115 88.9521 239.756 85.7448 233.897 84.8427C229.491 84.172 226.646 84.7194 223.924 86.7702C220.917 89.0369 218.241 93.1076 215.289 99.9077C213.966 102.961 211.013 110.231 211.075 110.293C211.167 110.378 213.697 111.38 215.135 111.904C217.065 112.598 220.794 113.824 227.015 115.798C234.351 118.134 246.108 121.927 246.354 122.042C246.538 122.135 243.124 121.981 239.395 121.734C232.759 121.295 232.182 121.271 227.861 121.271C223.793 121.271 222.763 121.31 220.056 121.588C213.751 122.22 208.122 123.831 203.593 126.291C202.524 126.876 202.593 126.807 201.379 128.449C199.795 130.577 197.503 133.052 195.681 134.579C191.267 138.295 186.061 140.584 180.24 141.386C179.641 141.463 179.502 141.471 179.587 141.386C179.641 141.332 180.048 140.993 180.494 140.623C184.808 137.038 188.33 132.736 191.252 127.478C193.028 124.278 194.635 120.632 196.165 116.299C197.203 113.361 197.58 112.159 200.325 103.076C201.963 97.6256 202.87 94.8886 203.985 91.9743C206.492 85.4441 209.445 80.24 212.99 76.1076L213.866 75.0899L213.543 74.7892C213.359 74.6273 212.736 74.1339 212.151 73.6867C206.323 69.2844 192.259 61.5052 186.699 59.5932C185.654 59.2385 185.023 59.2231 184.408 59.5315C184.008 59.7397 183.977 59.7782 183.57 60.5955C181.863 64.0109 180.448 71.605 179.225 83.879C178.533 90.8949 177.995 97.9185 176.995 113.253C175.896 130.099 175.534 134.887 174.95 140.16C174.404 145.064 173.766 148.379 173.174 149.297L172.997 149.566L172.974 148.294C172.935 146.251 173.105 124.911 173.189 121.194C173.566 104.426 174.343 91.8587 175.734 79.9085C176.649 72.0059 177.934 64.0417 179.31 57.6657C179.456 56.9873 179.679 55.7923 179.802 55.0059C180.056 53.356 180.24 52.6929 180.579 52.2381C180.909 51.7678 181.217 51.6598 181.886 51.7678C184.516 52.1764 189.675 54.9519 198.334 60.634C202.271 63.2091 206.038 65.8073 214.404 71.6976C216.581 73.2318 218.564 74.6196 218.803 74.7815L219.249 75.0744L218.687 75.6604C217.842 76.5547 217.18 77.4182 216.135 78.9833C211.944 85.2745 206.907 97.055 203.608 108.265C202.709 111.326 201.517 115.89 201.594 115.967C201.648 116.029 202.724 114.587 203.239 113.762C205.008 110.917 206.184 108.149 208.799 100.702C211.09 94.1716 212.251 91.2804 213.835 88.1425C216.55 82.7919 219.626 79.1452 223.555 76.6395C224.262 76.1924 226.2 75.2132 226.861 74.9665C227.338 74.7892 227.346 74.7892 227.123 74.7198C227 74.6812 226.138 74.6427 225.208 74.635C223.463 74.6273 223.332 74.6427 222.463 75.0128C222.34 75.059 222.332 75.0436 222.409 74.8277C222.455 74.7044 222.624 74.45 222.778 74.2649C223.201 73.7869 223.37 73.44 223.232 73.3166C223.078 73.1701 209.606 63.2399 207.753 61.9061C199.226 55.7537 190.806 50.2489 185.892 47.6122C183.939 46.5714 182.97 46.1705 179.733 45.0911C174.85 43.4566 173.566 43.0943 171.498 42.7704C170.175 42.5623 166.776 42.5854 164.692 42.809C162.047 43.0943 150.167 44.6825 144.938 45.4534C127.122 48.0594 114.75 50.7655 104.061 54.3814C99.1094 56.0544 93.7499 58.2979 92.1198 59.3773C91.8353 59.5701 91.6123 59.7397 91.6276 59.7551C91.643 59.7705 92.4658 59.4775 93.4577 59.0998C107.552 53.7415 126.784 49.5473 148.583 47.0725C153.92 46.4634 161.14 45.8158 165.115 45.5845C169.89 45.307 173.02 46.3169 174.589 48.6299C175.104 49.3931 175.235 49.7786 175.288 50.6884C175.442 53.541 174.689 68.6059 173.612 84.2645C171.882 109.314 170.006 128.087 168.722 133.029C168.383 134.34 168.306 134.478 167.584 134.902C164.439 136.776 157.434 138.441 147.622 139.652C130.913 141.71 105.592 142.373 87.2985 141.24C79.5014 140.754 73.5114 139.898 71.3276 138.958C71.1354 138.873 70.9585 138.819 70.9431 138.842C70.9278 138.858 70.8739 139.235 70.8355 139.675C70.797 140.106 70.6971 140.955 70.6125 141.548C70.3511 143.445 70.2357 144.455 70.1819 145.372L70.1281 146.259L70.9278 146.953C72.481 148.287 73.9113 149.219 76.0335 150.26C82.4234 153.39 91.4969 155.302 102.946 155.935C109.382 156.289 122.639 155.634 133.627 154.416C150.167 152.589 162.516 149.536 169.037 145.65C169.598 145.311 169.614 145.311 169.675 145.473C169.79 145.75 169.683 152.581 169.544 153.922C169.314 156.181 168.952 157.839 168.514 158.664C168.106 159.42 167.922 159.057 167.807 157.322C167.699 155.719 167.86 151.98 168.145 149.736C168.191 149.327 168.214 148.988 168.191 148.988C168.16 148.988 167.999 149.112 167.822 149.266C167.561 149.489 167.422 149.543 167.022 149.59L166.538 149.644L166.484 150.916C166.453 151.617 166.323 153.244 166.192 154.539C166.061 155.834 165.938 157.469 165.907 158.178L165.861 159.466L164.546 159.921C158.848 161.91 151.574 163.513 144.815 164.284C142.109 164.593 137.856 164.87 135.719 164.87C134.896 164.87 134.819 164.855 134.819 164.724C134.819 164.593 134.927 164.577 136.165 164.531C140.855 164.346 145.484 163.452 153.389 161.208C158.679 159.705 160.056 159.319 161.778 158.888L163.485 158.456L163.531 157.4C163.562 156.821 163.631 155.642 163.693 154.771C163.754 153.899 163.823 152.697 163.847 152.088C163.9 151.024 163.893 150.993 163.739 150.993C163.324 150.993 160.186 151.671 155.58 152.766C143.5 155.634 139.94 156.42 137.856 156.698C137.472 156.744 137.095 156.806 137.011 156.821C136.895 156.844 136.288 158.009 134.473 161.694C133.166 164.354 132.089 166.536 132.089 166.543C132.066 166.59 129.498 166.967 127.76 167.183C124.315 167.607 120.555 167.908 115.942 168.124C113.196 168.247 104.815 168.247 102.946 168.124C97.3178 167.746 94.1805 167.191 89.2593 165.718C86.9756 165.04 86.0913 164.816 84.9994 164.647L84.1151 164.516L83.9844 163.56C83.9075 163.028 83.7076 161.864 83.5307 160.977C83.0693 158.587 82.8463 157.161 82.7925 156.228L82.7387 155.395L82.4234 155.349C81.8083 155.249 80.0628 154.609 78.1789 153.799C75.0647 152.465 74.3034 152.072 72.4733 150.885C72.0427 150.607 71.6506 150.376 71.6121 150.376C71.5122 150.376 71.5122 153.321 71.6121 154.462C71.7813 156.343 72.135 157.23 73.0654 158.109C74.1035 159.08 75.4722 159.951 78.325 161.455C80.0705 162.365 81.5776 163.22 81.6468 163.321C81.6852 163.39 81.5468 163.375 80.6472 163.197C78.9863 162.873 76.9947 161.933 73.3115 159.712C71.9043 158.857 70.7125 158.163 70.674 158.163C70.5894 158.163 70.5971 158.209 70.8047 159.396C71.0662 160.838 71.1584 162.473 71.2276 166.605C71.3046 171.254 71.3891 172.357 71.7659 174.006C72.2196 175.965 73.027 177.468 74.2803 178.671C75.0877 179.457 75.7875 179.935 76.8563 180.436C77.8944 180.93 78.8325 181.223 80.801 181.678C100.647 186.273 136.926 187.09 164.423 183.567C167.453 183.173 172.797 182.341 173.374 182.171C173.512 182.125 173.512 182.133 173.374 182.372C173.135 182.78 171.82 184.129 171.175 184.615C167.084 187.738 159.502 189.626 148.199 190.343C144.485 190.582 141.886 190.652 136.511 190.652C127.214 190.644 118.418 190.266 104.83 189.272C96.5566 188.663 82.831 187.483 81.1085 187.236C73.2346 186.08 68.6671 182.202 67.306 175.518C67.1061 174.531 66.9447 173.081 66.8831 171.809C66.8601 171.239 66.7217 168.741 66.5756 166.258C65.7912 152.82 65.6605 145.102 66.1142 139.49C66.4371 135.45 67.06 132.875 67.9212 131.965L68.1673 131.711L68.3288 131.965C69.4129 133.584 75.7567 134.733 86.568 135.265C91.197 135.488 93.5269 135.527 101.178 135.527C109.021 135.527 112.228 135.473 118.671 135.226C132.066 134.702 144.092 133.715 152.466 132.451C159.125 131.441 163.239 130.215 163.677 129.105C164.277 127.617 165.846 115.235 167.338 100.224C168.652 87.0709 169.544 75.7144 169.998 66.4164C170.136 63.6871 170.229 57.3959 170.136 57.5193C170.106 57.5655 169.644 57.6966 169.114 57.8122C165.354 58.6295 162.016 60.6032 159.61 63.4327C156.742 66.7941 155.219 70.7801 154.927 75.6604L154.881 76.4622L157.149 76.4159C158.402 76.3851 160.448 76.3388 161.694 76.308L163.962 76.2617V84.5112C163.962 89.0446 163.939 94.3797 163.908 96.3535L163.862 99.9539H155.104H146.353V90.7947C146.361 80.9801 146.43 77.1946 146.622 75.6681C147.268 70.518 148.96 66.239 151.79 62.6C155.711 57.5578 161.647 54.2041 168.652 53.063C169.221 52.9705 169.706 52.8857 169.721 52.8703C169.829 52.7932 169.391 52.1455 168.922 51.6984C168.022 50.8426 166.945 50.3029 165.431 49.9405C159.763 48.5913 131.028 52.8548 109.329 58.2517C98.6096 60.927 91.0971 63.4635 87.3293 65.6839C84.984 67.0717 83.3231 70.04 80.4934 77.9039C80.0474 79.1529 79.4246 80.8722 79.117 81.7203L78.5556 83.2622L77.2331 83.2854C75.9951 83.3008 75.9105 83.2931 75.9489 83.1697C75.972 83.0926 76.318 81.674 76.7179 80.0164C77.9405 74.9434 78.9171 71.4894 79.8398 68.8989C80.0935 68.1973 80.2858 67.6037 80.2627 67.5882C80.2012 67.5266 79.0016 68.02 78.325 68.3901C73.7421 70.888 70.6509 77.1175 70.2588 84.6423L70.205 85.714L71.5814 85.6677C72.3349 85.6368 74.0804 85.5906 75.4491 85.5598L77.9405 85.5135L77.8944 89.5149C77.8636 91.7122 77.8405 96.4074 77.8405 99.9308V106.353H70.4203H63L63.0077 99.1598C63.0077 90.6791 63.0923 85.8296 63.2691 84.4573C64.3149 76.0073 68.4133 68.7987 74.4187 64.859C76.9178 63.2168 79.7168 62.176 82.508 61.8599L83.2616 61.7751L83.5692 61.3433C84.1151 60.5878 85.0763 59.678 85.876 59.146C88.8902 57.18 93.6423 54.8671 99.2171 52.6544C117.364 45.4534 145.177 39.0852 164.385 37.7359C167.661 37.5047 171.636 37.443 173.266 37.5895Z" fill="#212729"/>
</svg>
