<svg width="199" height="154" viewBox="0 0 199 154" fill="none" xmlns="http://www.w3.org/2000/svg">
<path d="M110.266 0.079205C112.927 0.325918 116.148 1.1817 118.994 2.39985C121.531 3.48693 124.83 5.32186 128.198 7.54228C140.67 15.7378 155.326 26.0612 173.742 39.6073C180.801 44.8114 198.656 58.0645 198.848 58.2573C198.91 58.3189 197.941 57.8641 196.695 57.2396C185.115 51.4418 176.756 48.2345 170.897 47.3325C166.491 46.6617 163.646 47.2091 160.924 49.2599C157.917 51.5266 155.241 55.5974 152.289 62.3974C150.966 65.4505 148.013 72.7208 148.075 72.7825C148.167 72.8673 150.697 73.8696 152.135 74.3938C154.065 75.0877 157.794 76.3136 164.015 78.2873C171.351 80.6233 183.108 84.4166 183.354 84.5322C183.538 84.6247 180.124 84.4705 176.395 84.2238C169.759 83.7844 169.182 83.7612 164.861 83.7612C160.793 83.7612 159.763 83.7998 157.056 84.0773C150.751 84.7095 145.122 86.3209 140.593 88.7803C139.524 89.3662 139.593 89.2969 138.379 90.939C136.795 93.0669 134.503 95.5418 132.681 97.0683C128.267 100.784 123.061 103.074 117.24 103.876C116.641 103.953 116.502 103.961 116.587 103.876C116.641 103.822 117.048 103.483 117.494 103.113C121.808 99.5277 125.33 95.2257 128.252 89.9676C130.028 86.768 131.635 83.1213 133.165 78.7884C134.203 75.851 134.58 74.6483 137.325 65.5661C138.963 60.1153 139.87 57.3783 140.985 54.464C143.492 47.9339 146.445 42.7297 149.99 38.5973L150.866 37.5796L150.543 37.2789C150.359 37.117 149.736 36.6236 149.151 36.1764C143.323 31.7741 129.259 23.995 123.699 22.0829C122.654 21.7283 122.023 21.7129 121.408 22.0213C121.008 22.2294 120.977 22.268 120.57 23.0852C118.863 26.5006 117.448 34.0948 116.225 46.3688C115.533 53.3847 114.995 60.4083 113.995 75.7431C112.896 92.5889 112.534 97.3767 111.95 102.65C111.404 107.554 110.766 110.869 110.174 111.786L109.997 112.056L109.974 110.784C109.935 108.741 110.105 87.4002 110.189 83.6841C110.566 66.9153 111.343 54.3484 112.734 42.3982C113.649 34.4957 114.934 26.5315 116.31 20.1555C116.456 19.477 116.679 18.282 116.802 17.4956C117.056 15.8457 117.24 15.1827 117.579 14.7278C117.909 14.2575 118.217 14.1496 118.886 14.2575C121.516 14.6661 126.675 17.4416 135.334 23.1238C139.271 25.6988 143.038 28.297 151.404 34.1873C153.581 35.7215 155.564 37.1093 155.803 37.2712L156.249 37.5642L155.687 38.1501C154.842 39.0445 154.18 39.908 153.135 41.4731C148.944 47.7642 143.907 59.5448 140.608 70.7548C139.709 73.8156 138.517 78.3798 138.594 78.4569C138.648 78.5186 139.724 77.0768 140.239 76.2519C142.008 73.407 143.184 70.6392 145.799 63.1915C148.09 56.6613 149.251 53.7702 150.835 50.6323C153.55 45.2817 156.626 41.635 160.555 39.1293C161.262 38.6821 163.2 37.703 163.861 37.4563C164.338 37.2789 164.346 37.2789 164.123 37.2095C164 37.171 163.138 37.1324 162.208 37.1247C160.463 37.117 160.332 37.1324 159.463 37.5025C159.34 37.5488 159.332 37.5333 159.409 37.3175C159.455 37.1941 159.624 36.9397 159.778 36.7547C160.201 36.2767 160.37 35.9297 160.232 35.8064C160.078 35.6599 146.606 25.7297 144.753 24.3959C136.226 18.2435 127.806 12.7387 122.892 10.1019C120.939 9.06111 119.97 8.6602 116.733 7.58083C111.85 5.94635 110.566 5.58399 108.498 5.26018C107.175 5.05202 103.776 5.07515 101.692 5.29873C99.0472 5.58399 87.1671 7.17221 81.9383 7.94319C64.1219 10.5491 51.7497 13.2552 41.0614 16.8711C36.1094 18.5441 30.7499 20.7877 29.1198 21.8671C28.8353 22.0598 28.6123 22.2294 28.6276 22.2448C28.643 22.2603 29.4658 21.9673 30.4577 21.5895C44.5524 16.2312 63.7836 12.0371 85.5831 9.56224C90.9195 8.95317 98.1399 8.30555 102.115 8.07425C106.89 7.7967 110.02 8.80668 111.589 11.1196C112.104 11.8829 112.235 12.2684 112.288 13.1781C112.442 16.0308 111.689 31.0957 110.612 46.7543C108.882 71.8034 107.006 90.5767 105.722 95.5187C105.383 96.8293 105.306 96.9681 104.584 97.3921C101.439 99.2656 94.4336 100.931 84.6219 102.141C67.9128 104.2 42.5916 104.863 24.2985 103.73C16.5015 103.244 10.5114 102.388 8.32761 101.447C8.13538 101.363 7.95852 101.309 7.94314 101.332C7.92776 101.347 7.87394 101.725 7.83549 102.164C7.79704 102.596 7.69708 103.444 7.6125 104.038C7.35106 105.935 7.23572 106.945 7.18189 107.862L7.12806 108.749L7.92776 109.443C9.48102 110.776 10.9113 111.709 13.0335 112.75C19.4234 115.88 28.4969 117.792 39.9465 118.424C46.3825 118.779 59.639 118.124 70.6272 116.906C87.1671 115.078 99.5163 112.025 106.037 108.14C106.598 107.8 106.614 107.8 106.675 107.962C106.79 108.24 106.683 115.071 106.544 116.412C106.314 118.671 105.952 120.329 105.514 121.154C105.106 121.909 104.922 121.547 104.807 119.812C104.699 118.209 104.86 114.469 105.145 112.226C105.191 111.817 105.214 111.478 105.191 111.478C105.16 111.478 104.999 111.601 104.822 111.755C104.561 111.979 104.422 112.033 104.022 112.079L103.538 112.133L103.484 113.405C103.453 114.107 103.323 115.734 103.192 117.029C103.061 118.324 102.938 119.959 102.907 120.668L102.861 121.956L101.546 122.41C95.8484 124.4 88.5743 126.003 81.8153 126.774C79.1086 127.083 74.8564 127.36 72.7187 127.36C71.8959 127.36 71.819 127.345 71.819 127.214C71.819 127.083 71.9267 127.067 73.1647 127.021C77.8552 126.836 82.4843 125.941 90.389 123.698C95.6793 122.195 97.0557 121.809 98.7781 121.377L100.485 120.946L100.531 119.889C100.562 119.311 100.631 118.131 100.693 117.26C100.754 116.389 100.823 115.186 100.847 114.577C100.9 113.513 100.893 113.482 100.739 113.482C100.324 113.482 97.1864 114.161 92.5804 115.256C80.5004 118.124 76.9402 118.91 74.8564 119.188C74.4719 119.234 74.0951 119.296 74.0105 119.311C73.8952 119.334 73.2877 120.498 71.473 124.184C70.1658 126.844 69.0893 129.025 69.0893 129.033C69.0662 129.079 66.498 129.457 64.7602 129.673C61.3153 130.097 57.5552 130.398 52.9416 130.614C50.1964 130.737 41.815 130.737 39.9465 130.614C34.3178 130.236 31.1805 129.681 26.2593 128.208C23.9756 127.53 23.0913 127.306 21.9994 127.136L21.1151 127.005L20.9844 126.049C20.9075 125.517 20.7076 124.353 20.5307 123.467C20.0693 121.077 19.8463 119.65 19.7925 118.717L19.7387 117.885L19.4234 117.838C18.8083 117.738 17.0628 117.098 15.1789 116.289C12.0647 114.955 11.3034 114.562 9.47333 113.375C9.04273 113.097 8.65057 112.866 8.61212 112.866C8.51216 112.866 8.51216 115.811 8.61212 116.952C8.78129 118.833 9.135 119.72 10.0654 120.599C11.1035 121.57 12.4722 122.441 15.325 123.945C17.0705 124.854 18.5776 125.71 18.6468 125.81C18.6852 125.88 18.5468 125.864 17.6472 125.687C15.9863 125.363 13.9947 124.423 10.3115 122.202C8.90432 121.346 7.71246 120.653 7.67401 120.653C7.58943 120.653 7.59712 120.699 7.80473 121.886C8.06617 123.328 8.15845 124.962 8.22765 129.095C8.30454 133.744 8.38913 134.846 8.76591 136.496C9.21958 138.454 10.027 139.958 11.2803 141.161C12.0877 141.947 12.7875 142.425 13.8563 142.926C14.8944 143.42 15.8325 143.713 17.801 144.167C37.6473 148.762 73.9259 149.58 101.423 146.056C104.453 145.663 109.797 144.83 110.374 144.661C110.512 144.615 110.512 144.622 110.374 144.861C110.135 145.27 108.82 146.619 108.175 147.105C104.084 150.227 96.502 152.116 85.1986 152.833C81.4846 153.072 78.8856 153.142 73.5107 153.142C64.2142 153.134 55.4175 152.756 41.8304 151.762C33.5566 151.152 19.831 149.973 18.1085 149.726C10.2346 148.57 5.66708 144.692 4.30605 138.007C4.10613 137.02 3.94465 135.571 3.88313 134.299C3.86007 133.728 3.72166 131.23 3.57556 128.748C2.79124 115.31 2.66052 107.592 3.11419 101.979C3.43715 97.9395 4.05999 95.3645 4.9212 94.4547L5.16727 94.2003L5.32874 94.4547C6.41295 96.0738 12.7567 97.2225 23.568 97.7545C28.197 97.9781 30.5269 98.0166 38.1779 98.0166C46.0211 98.0166 49.2276 97.9627 55.6713 97.7159C69.0662 97.1917 81.0925 96.2048 89.4662 94.9404C96.1253 93.9304 100.239 92.7046 100.677 91.5944C101.277 90.1064 102.846 77.7245 104.338 62.7135C105.652 49.5606 106.544 38.2041 106.998 28.9061C107.136 26.1768 107.229 19.8856 107.136 20.009C107.106 20.0553 106.644 20.1863 106.114 20.302C102.354 21.1192 99.0165 23.0929 96.6097 25.9224C93.7415 29.2839 92.219 33.2698 91.9268 38.1501L91.8807 38.9519L94.1491 38.9057C95.4025 38.8749 97.4478 38.8286 98.6935 38.7978L100.962 38.7515V47.001C100.962 51.5343 100.939 56.8695 100.908 58.8432L100.862 62.4437H92.1037H83.3532V53.2844C83.3608 43.4699 83.4301 39.6844 83.6223 38.1578C84.2682 33.0077 85.9599 28.7288 88.7896 25.0898C92.7112 20.0476 98.6474 16.6938 105.652 15.5527C106.221 15.4602 106.706 15.3754 106.721 15.36C106.829 15.2829 106.391 14.6353 105.922 14.1881C105.022 13.3323 103.945 12.7926 102.431 12.4303C96.7635 11.0811 68.0282 15.3446 46.3287 20.7414C35.6096 23.4167 28.0971 25.9532 24.3293 28.1737C21.984 29.5614 20.3231 32.5297 17.4934 40.3937C17.0474 41.6427 16.4246 43.3619 16.117 44.21L15.5557 45.752L14.2331 45.7751C12.9951 45.7905 12.9105 45.7828 12.9489 45.6595C12.972 45.5824 13.318 44.1638 13.7179 42.5062C14.9405 37.4331 15.9171 33.9791 16.8398 31.3886C17.0935 30.6871 17.2858 30.0934 17.2627 30.078C17.2012 30.0163 16.0016 30.5097 15.325 30.8798C10.7421 33.3778 7.65094 39.6073 7.25878 47.132L7.20496 48.2037L8.58136 48.1574C9.33492 48.1266 11.0804 48.0803 12.4491 48.0495L14.9405 48.0032L14.8944 52.0046C14.8636 54.2019 14.8405 58.8972 14.8405 62.4205V68.8428H7.42026H-1.58057e-05L0.0076736 61.6496C0.0076736 53.1688 0.0922571 48.3193 0.269113 46.947C1.31487 38.4971 5.41333 31.2884 11.4188 27.3487C13.9178 25.7065 16.7168 24.6657 19.508 24.3496L20.2616 24.2648L20.5691 23.8331C21.1151 23.0775 22.0763 22.1677 22.876 21.6358C25.8902 19.6698 30.6423 17.3568 36.2171 15.1441C54.3641 7.94319 82.1767 1.5749 101.385 0.225691C104.661 -0.00560267 108.636 -0.067281 110.266 0.079205Z" fill="#212729"/>
</svg>
